<svg xmlns="http://www.w3.org/2000/svg" width="54.941" height="67.889" viewBox="0 0 54.941 67.889"><g transform="translate(-5602 17432)"><g transform="translate(5602 -17432)"><g transform="translate(11.659 27.622)"><path d="M6375.66,1758.221a.692.692,0,0,1-.693-.693v-7.365l-7.124-6.155a.693.693,0,0,1,.906-1.049l7.364,6.361a.691.691,0,0,1,.24.525v7.683A.693.693,0,0,1,6375.66,1758.221Z" transform="translate(-6344.729 -1742.608)" fill="#555"></path><path d="M6318.811,1758.009a.693.693,0,0,1-.693-.693v-7.683a.694.694,0,0,1,.233-.518l7.364-6.544a.693.693,0,0,1,.921,1.037l-7.131,6.337v7.371A.694.694,0,0,1,6318.811,1758.009Z" transform="translate(-6318.118 -1742.397)" fill="#555"></path></g><path d="M6341.328,1720.52c-5.306,0-9.623-5.087-9.623-11.339s4.316-11.339,9.623-11.339,9.623,5.087,9.623,11.339S6346.633,1720.52,6341.328,1720.52Zm0-21.292c-4.542,0-8.235,4.465-8.235,9.953s3.693,9.953,8.235,9.953,8.236-4.464,8.236-9.953S6345.869,1699.228,6341.328,1699.228Z" transform="translate(-6313.767 -1690.812)" fill="#555"></path><path d="M6321.974,1794.6h-20.559a.693.693,0,0,1-.665-.5l-4.886-16.431a3.5,3.5,0,0,1,3.357-4.5h45.322a3.5,3.5,0,0,1,3.355,4.5l-4.884,16.43a.693.693,0,0,1-1.33-.395l4.885-16.431a2.115,2.115,0,0,0-2.027-2.718h-45.322a2.115,2.115,0,0,0-2.028,2.717l4.738,15.936h20.042a.693.693,0,0,1,0,1.387Z" transform="translate(-6294.413 -1731.324)" fill="#555"></path><path d="M6344.994,1818.523h-49.258a2.838,2.838,0,0,1-2.506-4.169l2.6-4.9a.693.693,0,1,1,1.224.65l-2.6,4.9a1.452,1.452,0,0,0,1.281,2.132h49.258a1.452,1.452,0,0,0,1.282-2.132l-2.6-4.9a.693.693,0,1,1,1.225-.65l2.6,4.9a2.839,2.839,0,0,1-2.507,4.169Z" transform="translate(-6292.895 -1750.634)" fill="#555"></path><path d="M6349.6,1695.8a.694.694,0,0,1-.693-.693,11.082,11.082,0,1,0-22.163,0,.693.693,0,1,1-1.387,0,12.468,12.468,0,1,1,24.936,0A.693.693,0,0,1,6349.6,1695.8Z" transform="translate(-6310.35 -1682.635)" fill="#555"></path><path d="M6371.821,1716.223h-2.562a.693.693,0,0,1,0-1.387h2.562a2.019,2.019,0,0,0,2.016-2.016v-1.461a2.019,2.019,0,0,0-2.016-2.016H6367.8a.693.693,0,1,1,0-1.387h4.023a3.407,3.407,0,0,1,3.4,3.4v1.461A3.407,3.407,0,0,1,6371.821,1716.223Z" transform="translate(-6332.804 -1696.251)" fill="#555"></path><path d="M6326.094,1716.223h-2.709a3.407,3.407,0,0,1-3.4-3.4v-1.461a3.407,3.407,0,0,1,3.4-3.4h3.9a.693.693,0,0,1,0,1.387h-3.9a2.019,2.019,0,0,0-2.017,2.016v1.461a2.019,2.019,0,0,0,2.017,2.016h2.709a.693.693,0,1,1,0,1.387Z" transform="translate(-6307.462 -1696.251)" fill="#555"></path><path d="M6303.3,1780.675l1.185,4.136h42.955l1.217-4.091-.019-.044H6303.3Z" transform="translate(-6298.489 -1735.359)" fill="#FF9300"></path></g></g></svg>