<svg xmlns="http://www.w3.org/2000/svg" width="66" height="51" viewBox="0 0 66 51"><g transform="translate(24256 6730)"><g transform="translate(-24243 -6748)"><g transform="translate(6.5 27.259)"><path d="M22.116,30.231V27.654A5.154,5.154,0,0,0,16.962,22.5H6.654A5.154,5.154,0,0,0,1.5,27.654v2.577" transform="translate(-1.5 -7.038)" fill="none" stroke="#555" stroke-linecap="round" stroke-linejoin="round" stroke-width="1"></path><path d="M17.808,9.654A5.154,5.154,0,1,1,12.654,4.5a5.154,5.154,0,0,1,5.154,5.154Z" transform="translate(-2.346 -4.5)" fill="none" stroke="#555" stroke-linecap="round" stroke-linejoin="round" stroke-width="1"></path><path d="M33.866,30.259V27.682A5.154,5.154,0,0,0,30,22.7" transform="translate(-5.518 -7.065)" fill="none" stroke="#555" stroke-linecap="round" stroke-linejoin="round" stroke-width="1"></path><path d="M24,4.7a5.154,5.154,0,0,1,0,9.986" transform="translate(-4.672 -4.527)" fill="none" stroke="#007111" stroke-linecap="round" stroke-linejoin="round" stroke-width="1"></path></g></g><g transform="translate(-24276 -6747)"><g transform="translate(20 17)" fill="none" stroke="#555" stroke-width="1"><rect width="66" height="47" rx="5" stroke="none"></rect><rect x="0.5" y="0.5" width="65" height="46" rx="4.5" fill="none"></rect></g><line x2="64.745" transform="translate(20.476 55.561)" fill="none" stroke="#555" stroke-width="1"></line><g transform="translate(37 63)" fill="none" stroke="#555" stroke-width="1"><rect width="32" height="5" stroke="none"></rect><rect x="0.5" y="0.5" width="31" height="4" fill="none"></rect></g><g transform="translate(36 67)" fill="#fff" stroke="#555" stroke-width="1"><rect width="34" height="1" stroke="none"></rect><rect x="0.5" y="0.5" width="33" fill="none"></rect></g></g><path d="M2435.6,1714.023l11.6-11.594h-11.6Z" transform="translate(-26687.154 -8428.24)" fill="#007111"></path></g></svg>