<?xml version="1.0" encoding="UTF-8" standalone="no"?>
<svg
   width="63.380001"
   height="67.648003"
   viewBox="0 0 63.380001 67.648003"
   id="Flat"
   version="1.1"
   sodipodi:docname="airplay-thin-svgrepo-com.svg"
   inkscape:version="1.1.1 (3bf5ae0d25, 2021-09-20)"
   xmlns:inkscape="http://www.inkscape.org/namespaces/inkscape"
   xmlns:sodipodi="http://sodipodi.sourceforge.net/DTD/sodipodi-0.dtd"
   xmlns="http://www.w3.org/2000/svg"
   xmlns:svg="http://www.w3.org/2000/svg">
  <defs
     id="defs7" />
  <sodipodi:namedview
     id="namedview5"
     pagecolor="#ffffff"
     bordercolor="#666666"
     borderopacity="1.0"
     inkscape:pageshadow="2"
     inkscape:pageopacity="0.0"
     inkscape:pagecheckerboard="0"
     showgrid="false"
     height="67.648px"
     inkscape:zoom="1.0898438"
     inkscape:cx="178.00717"
     inkscape:cy="145.43369"
     inkscape:window-width="1326"
     inkscape:window-height="704"
     inkscape:window-x="40"
     inkscape:window-y="27"
     inkscape:window-maximized="1"
     inkscape:current-layer="Flat" />
  <path
     d="m 33.640744,39.259744 a 1.1096552,1.1096552 0 0 0 -1.685103,0 L 18.638733,54.795189 a 1.109719,1.109719 0 0 0 0.842551,1.831795 h 26.632192 a 1.109719,1.109719 0 0 0 0.842551,-1.831795 z M 21.894069,54.407635 32.798193,41.687013 43.700963,54.407635 Z M 60.539246,13.349673 v 31.07089 a 5.5546429,5.5546429 0 0 1 -5.548373,5.548374 h -4.438699 a 1.109675,1.109675 0 0 1 0,-2.21935 h 4.438699 a 3.3327497,3.3327497 0 0 0 3.329024,-3.329024 V 13.349673 A 3.3327497,3.3327497 0 0 0 54.990873,10.020649 H 10.603887 a 3.3327497,3.3327497 0 0 0 -3.3290242,3.329024 v 31.07089 a 3.3327497,3.3327497 0 0 0 3.3290242,3.329024 h 4.438698 a 1.109675,1.109675 0 0 1 0,2.21935 H 10.603887 A 5.5546429,5.5546429 0 0 1 5.0555135,44.420563 V 13.349673 A 5.5546429,5.5546429 0 0 1 10.603887,7.8012993 h 44.386986 a 5.5546429,5.5546429 0 0 1 5.548373,5.5483737 z"
     id="path2"
     style="stroke-width:0.277419;stroke:#555555;stroke-opacity:1;fill:#555555;fill-opacity:1" />
</svg>
