<svg xmlns="http://www.w3.org/2000/svg" width="54.953" height="56.346" viewBox="0 0 54.953 56.346"><g transform="translate(-5922.361 -1509.643)"><g transform="translate(5952.267 1533.734)"><path d="M6016.667,1598.2H5992.9a.641.641,0,0,1-.642-.642v-30.969a.642.642,0,0,1,.642-.642h18.7a.64.64,0,0,1,.454.188l5.068,5.067a.642.642,0,0,1,.188.454v25.9A.641.641,0,0,1,6016.667,1598.2Zm-23.123-1.283h22.481v-24.993l-4.692-4.692h-17.789Z" transform="translate(-5992.261 -1565.952)" fill="#555"/><path d="M6038.165,1576.138h-4.09a.642.642,0,0,1-.642-.642v-4.09a.642.642,0,0,1,1.283,0v3.448h3.448a.642.642,0,0,1,0,1.284Z" transform="translate(-6015.818 -1568.705)" fill="#555"/></g><g transform="translate(5956.182 1546.969)"><path d="M6017.987,1606h-15.933a.642.642,0,0,1,0-1.283h15.933a.642.642,0,0,1,0,1.283Z" transform="translate(-6001.413 -1601.364)" fill="#555"/><path d="M6019.441,1598.17h-7.309a.642.642,0,0,1,0-1.283h7.309a.642.642,0,0,1,0,1.283Z" transform="translate(-6007.179 -1596.886)" fill="#555"/><path d="M6010.02,1622.037h-7.966a.642.642,0,0,1,0-1.283h7.966a.642.642,0,0,1,0,1.283Z" transform="translate(-6001.413 -1610.542)" fill="#555"/><path d="M6028.64,1614.211h-7.967a.642.642,0,0,1,0-1.283h7.967a.642.642,0,1,1,0,1.283Z" transform="translate(-6012.065 -1606.064)" fill="#555"/></g><path d="M5946.767,1541.9H5923a.642.642,0,0,1-.642-.642v-30.969a.642.642,0,0,1,.642-.642h18.7a.639.639,0,0,1,.453.188l5.068,5.068a.643.643,0,0,1,.188.453v25.9A.642.642,0,0,1,5946.767,1541.9Zm-23.123-1.284h22.481v-24.994l-4.691-4.692h-17.79Z" transform="translate(0)" fill="#555"/><path d="M5968.266,1519.829h-4.09a.642.642,0,0,1-.642-.642v-4.09a.642.642,0,1,1,1.283,0v3.448h3.449a.642.642,0,1,1,0,1.284Z" transform="translate(-23.558 -2.753)" fill="#555"/><g transform="translate(5926.277 1524.635)"><path d="M5948.089,1553.794h-15.932a.642.642,0,0,1,0-1.283h15.932a.642.642,0,1,1,0,1.283Z" transform="translate(-5931.515 -1549.163)" fill="#555"/><path d="M5948.089,1545.969h-15.932a.642.642,0,0,1,0-1.283h15.932a.642.642,0,1,1,0,1.283Z" transform="translate(-5931.515 -1544.685)" fill="#555"/><path d="M5940.123,1569.836h-7.966a.642.642,0,0,1,0-1.284h7.966a.642.642,0,1,1,0,1.284Z" transform="translate(-5931.515 -1558.341)" fill="#555"/><path d="M5948.089,1562.01h-15.932a.642.642,0,0,1,0-1.283h15.932a.642.642,0,1,1,0,1.283Z" transform="translate(-5931.515 -1553.863)" fill="#555"/></g><path d="M5999.472,1548.351a.642.642,0,0,1-.642-.642v-8.058h-13.887a.642.642,0,0,1,0-1.284h14.529a.642.642,0,0,1,.642.642v8.7A.642.642,0,0,1,5999.472,1548.351Z" transform="translate(-35.44 -16.435)" fill="#555"/><path d="M5964.218,1599.351h-14.529a.642.642,0,0,1-.642-.642v-8.7a.642.642,0,0,1,1.283,0v8.058h13.887a.642.642,0,0,1,0,1.284Z" transform="translate(-15.269 -45.616)" fill="#555"/><path d="M5939.85,1517.143h-9.988v9.135h0a17.039,17.039,0,0,1,8.825-8.638Z" transform="translate(-4.292 -4.291)" fill="#17c2c9"/></g></svg>
