<svg xmlns="http://www.w3.org/2000/svg" width="63.284" height="67.648" viewBox="0 0 63.284 67.648"><g transform="translate(-5596 17880.001)"><g transform="translate(5596 -17880)"><path d="M5777.67,1164.005a2.439,2.439,0,0,1-1.229-.328,3.093,3.093,0,0,1-1.445-2.715c0-1.853.84-3.13,2.812-4.268l18.34-10.589a.379.379,0,0,0,0-.658l-19.751-11.4a.7.7,0,1,1,.7-1.206l19.75,11.4a1.772,1.772,0,0,1,0,3.07L5778.5,1157.9c-1.542.891-2.116,1.721-2.116,3.062a1.73,1.73,0,0,0,.749,1.509,1.271,1.271,0,0,0,1.314-.091l18.328-10.582-1.292-.843a.7.7,0,0,1,.761-1.167l2.243,1.462a.7.7,0,0,1-.032,1.187l-19.311,11.149A2.953,2.953,0,0,1,5777.67,1164.005Z" transform="translate(-5753.627 -1132.746)" fill="#555"/><path d="M5751.939,1163.651a.693.693,0,0,1-.347-.093l-20.948-12.088a3.3,3.3,0,0,1-1.564-1.971,2.519,2.519,0,0,1-.117-.9c.007-1.841.85-3.111,2.812-4.245l19.955-11.521a.7.7,0,0,1,.7,1.206l-19.955,11.52c-1.543.891-2.116,1.721-2.116,3.063a.59.59,0,0,1,0,.066,1.825,1.825,0,0,0,.07.432,1.945,1.945,0,0,0,.919,1.137l20.949,12.088a.7.7,0,0,1-.35,1.3Z" transform="translate(-5728.956 -1132.745)" fill="#555"/><g transform="translate(0.001 22.618)"><path d="M5799.408,1203.858a.7.7,0,0,1-.349-1.3l10.428-6.021-1.292-.842a.7.7,0,1,1,.76-1.167l2.243,1.462a.7.7,0,0,1-.031,1.186l-11.411,6.588A.688.688,0,0,1,5799.408,1203.858Z" transform="translate(-5766.333 -1188.408)" fill="#555"/><path d="M5747.25,1198.75a.689.689,0,0,1-.348-.093l-16.259-9.382a3.3,3.3,0,0,1-1.564-1.971,2.524,2.524,0,0,1-.117-.9c.007-1.84.85-3.11,2.812-4.243l.889-.579a.7.7,0,1,1,.759,1.168l-.919.6c-1.575.91-2.147,1.74-2.147,3.082a.588.588,0,0,1,0,.066,1.822,1.822,0,0,0,.07.432,1.946,1.946,0,0,0,.919,1.137l16.259,9.383a.7.7,0,0,1-.349,1.3Z" transform="translate(-5728.956 -1181.473)" fill="#555"/></g><path d="M5786.6,1216.81a.7.7,0,0,1-.7-.7v-2.944l-3.171,1.808a.7.7,0,0,1-.691-1.21l4.213-2.4a.7.7,0,0,1,1.041.6v2.914l2.3-1.375v-3.7a1.94,1.94,0,0,0-.978-1.682.7.7,0,0,1,.69-1.209,3.335,3.335,0,0,1,1.68,2.892v4.094a.7.7,0,0,1-.339.6l-3.688,2.208A.7.7,0,0,1,5786.6,1216.81Z" transform="translate(-5757.213 -1172.441)" fill="#555"/><path d="M5775.691,1200.018a.7.7,0,0,1-.7-.7c0-1.854.84-3.131,2.812-4.269l18.34-10.589a.379.379,0,0,0,0-.658.7.7,0,0,1,.7-1.206,1.771,1.771,0,0,1,0,3.07l-18.34,10.588c-1.542.891-2.116,1.721-2.116,3.063A.7.7,0,0,1,5775.691,1200.018Z" transform="translate(-5753.627 -1159.408)" fill="#555"/><path d="M5751.554,1168.156a.689.689,0,0,1-.336-.088l-16.582-9.2a.7.7,0,1,1,.676-1.217l16.582,9.2a.7.7,0,0,1-.34,1.305Z" transform="translate(-5731.808 -1146.044)" fill="#555"/><path d="M5842.642,1252.43H5838.1a5.267,5.267,0,0,1-5.261-5.26v-12.05a5.266,5.266,0,0,1,5.261-5.26h4.543a5.267,5.267,0,0,1,5.261,5.26v12.05A5.267,5.267,0,0,1,5842.642,1252.43Zm-4.543-21.178a3.872,3.872,0,0,0-3.868,3.868v12.05a3.872,3.872,0,0,0,3.868,3.868h4.543a3.872,3.872,0,0,0,3.869-3.868v-12.05a3.872,3.872,0,0,0-3.869-3.868Z" transform="translate(-5784.619 -1184.781)" fill="#555"/><path d="M5845.951,1247.172a2.7,2.7,0,1,1,2.7-2.7A2.7,2.7,0,0,1,5845.951,1247.172Zm0-4a1.305,1.305,0,1,0,1.306,1.306A1.307,1.307,0,0,0,5845.951,1243.168Z" transform="translate(-5790.199 -1191.166)" fill="#555"/><path d="M5848.261,1236.783a.7.7,0,0,1-.7-.7v-5.532a.7.7,0,0,1,1.393,0v5.532A.7.7,0,0,1,5848.261,1236.783Z" transform="translate(-5792.509 -1184.781)" fill="#555"/><path d="M5783.462,1232.664a8.872,8.872,0,0,1-5.851-2.307,8.734,8.734,0,0,1-2.679-6.611v-10.672a.7.7,0,0,1,1.393,0v10.672a7.124,7.124,0,0,0,7.507,7.513c3.346-.254,5.38-3.12,6.929-5.89.819-1.464,1.539-3.029,2.234-4.541.769-1.672,1.564-3.4,2.509-5.035,1.788-3.093,4.329-6.742,8.146-7.515a5.755,5.755,0,0,1,4.675,1.166,4.521,4.521,0,0,1,1.714,3.545v5.948a.7.7,0,1,1-1.392,0v-5.948a3.127,3.127,0,0,0-1.2-2.466,4.389,4.389,0,0,0-3.517-.879c-3.272.663-5.576,4.008-7.218,6.847-.912,1.577-1.693,3.276-2.449,4.92-.707,1.537-1.437,3.126-2.284,4.639-1.627,2.912-4.013,6.292-8.039,6.6C5783.787,1232.657,5783.628,1232.664,5783.462,1232.664Z" transform="translate(-5753.592 -1173.161)" fill="#555"/><path d="M5775.581,1150.2l4.656,2.577,4.3-2.482-15.794-9.119-8.684,5.014h0A32.045,32.045,0,0,1,5775.581,1150.2Z" transform="translate(-5745.621 -1137.262)" fill="#ff9300"/></g></g></svg>