<svg xmlns="http://www.w3.org/2000/svg" width="56.358" height="56.629" viewBox="0 0 56.358 56.629"><g transform="translate(-5729.964 -1325.883)"><path d="M5730.614,1412.272a.651.651,0,0,1-.65-.651,52.773,52.773,0,0,1,1.693-13.987l.095-.418a105.166,105.166,0,0,1,3.825-12.312,7.525,7.525,0,0,1,4.875-4.531l3.618-1.1a.651.651,0,1,1,.378,1.246l-3.619,1.1a6.227,6.227,0,0,0-4.036,3.751,103.466,103.466,0,0,0-3.771,12.135l-.1.419a51.133,51.133,0,0,0-1.66,13.7A.651.651,0,0,1,5730.614,1412.272Z" transform="translate(0 -30.21)" fill="#555"/><path d="M5757.71,1422.2a.648.648,0,0,1-.651-.648,4.576,4.576,0,0,1,2.838-4.27c2.079-.842,4.935-2.789,6.741-7.284a26.059,26.059,0,0,1,2.2-4.411c.453-.715,1.037-1.525,1.655-2.383.546-.759,1.112-1.544,1.6-2.285,1.159-1.764.974-2.4.119-3.147-.019-.014-.048-.037-.08-.067a1.808,1.808,0,0,0-1.363-.4,1.841,1.841,0,0,0-1.269.729l-.211.276a31.087,31.087,0,0,1-6.6,6.791,2.168,2.168,0,0,1-2.3.221,2.375,2.375,0,0,1-1.283-2.141.651.651,0,0,1,.648-.653h0a.651.651,0,0,1,.651.648,1.077,1.077,0,0,0,.565.982.862.862,0,0,0,.939-.1,29.943,29.943,0,0,0,6.34-6.53l.21-.276a3.145,3.145,0,0,1,4.516-.537.443.443,0,0,1,.039.035l.055.044c1.833,1.61,1.136,3.279.108,4.841-.5.765-1.078,1.561-1.633,2.331-.605.841-1.178,1.636-1.611,2.32a24.846,24.846,0,0,0-2.087,4.2c-1.978,4.92-5.147,7.069-7.459,8.005a3.277,3.277,0,0,0-2.026,3.058A.654.654,0,0,1,5757.71,1422.2Z" transform="translate(-15.338 -39.689)" fill="#555"/><path d="M5805.672,1446.006h-32.828a.651.651,0,1,1,0-1.3h32.828a3.257,3.257,0,0,0,3.253-3.253v-2.756a.651.651,0,1,1,1.3,0v2.756A4.56,4.56,0,0,1,5805.672,1446.006Z" transform="translate(-23.905 -63.493)" fill="#555"/><path d="M5803.676,1375.853a.651.651,0,0,1-.651-.651V1330.91a3.73,3.73,0,0,0-3.726-3.725h-32.5a3.73,3.73,0,0,0-3.726,3.725v32.583a.651.651,0,1,1-1.3,0V1330.91a5.033,5.033,0,0,1,5.027-5.027h32.5a5.033,5.033,0,0,1,5.027,5.027V1375.2A.651.651,0,0,1,5803.676,1375.853Z" transform="translate(-18.006)" fill="#555"/><path d="M5805.267,1331.69h-10.539a3.021,3.021,0,0,1-3.017-3.017v-2.138a.651.651,0,1,1,1.3,0v2.138a1.717,1.717,0,0,0,1.715,1.716h10.539a1.718,1.718,0,0,0,1.716-1.716v-2.138a.651.651,0,1,1,1.3,0v2.138A3.021,3.021,0,0,1,5805.267,1331.69Z" transform="translate(-34.954)" fill="#555"/><path d="M5798.051,1357.953a.643.643,0,0,1-.325-.087l-9.129-5.27a.651.651,0,0,1,0-1.127l9.129-5.27a.647.647,0,0,1,.65,0l9.128,5.27a.651.651,0,0,1,0,1.127l-9.128,5.27A.649.649,0,0,1,5798.051,1357.953Zm-7.827-5.921,7.827,4.519,7.827-4.519-7.827-4.519Z" transform="translate(-33.008 -11.451)" fill="#555"/><path d="M5801.772,1356.8l3.921-2.264,3.921,2.264-3.921,2.264Z" transform="translate(-40.65 -16.222)" fill="#007111"/><path d="M5798.051,1375.369a.642.642,0,0,1-.325-.087l-9.129-5.27a.652.652,0,0,1-.325-.563v-10.54a.651.651,0,1,1,1.3,0v10.164l8.477,4.895,8.478-4.895v-10.164a.651.651,0,0,1,1.3,0v10.54a.651.651,0,0,1-.325.563l-9.128,5.27A.648.648,0,0,1,5798.051,1375.369Z" transform="translate(-33.008 -18.326)" fill="#555"/><path d="M5809.96,1378.7a.651.651,0,0,1-.651-.651v-7a.651.651,0,0,1,1.3,0v7A.651.651,0,0,1,5809.96,1378.7Z" transform="translate(-44.917 -25.202)" fill="#555"/><path d="M5810.885,1417.1H5798.2a.651.651,0,0,1,0-1.3h12.689a.651.651,0,0,1,0,1.3Z" transform="translate(-38.257 -50.902)" fill="#555"/><path d="M5807.649,1433.967h-15.17a.651.651,0,0,1,0-1.3h15.17a.651.651,0,0,1,0,1.3Z" transform="translate(-35.021 -60.448)" fill="#555"/></g></svg>
 