<svg xmlns="http://www.w3.org/2000/svg" width="49.309" height="49.309" viewBox="0 0 49.309 49.309">
    <g id="Group_962" data-name="Group 962" transform="translate(-16 -16)">
      <path id="Path_677" data-name="Path 677" d="M25.686,58.265a.88.88,0,0,1-.787-.486l-.581-1.161a3.394,3.394,0,0,0-6.07,0l-.579,1.161A.881.881,0,0,1,16,57.384v-36.1a5.283,5.283,0,0,1,10.566,0v36.1a.88.88,0,0,1-.678.856A.8.8,0,0,1,25.686,58.265Zm-4.4-5.283a5.13,5.13,0,0,1,3.522,1.386V21.283a3.522,3.522,0,0,0-7.044,0V54.367A5.13,5.13,0,0,1,21.283,52.981Z" fill="#fff"/>
      <path id="Path_678" data-name="Path 678" d="M60.623,60.265H25.4a4.408,4.408,0,0,1-4.4-4.4V18.881A.881.881,0,0,1,21.881,18H60.623a.881.881,0,0,1,.881.881v40.5A.881.881,0,0,1,60.623,60.265Zm-37.862-40.5v36.1A2.645,2.645,0,0,0,25.4,58.5h34.34V19.761Z" transform="translate(3.805 1.522)" fill="#fff"/>
      <path id="Path_679" data-name="Path 679" d="M59.145,47.805H23.925A7.934,7.934,0,0,1,16,39.881a.881.881,0,1,1,1.761,0,6.17,6.17,0,0,0,6.164,6.164h34.34V43.4a.881.881,0,1,1,1.761,0v3.522A.881.881,0,0,1,59.145,47.805Z" transform="translate(0 17.503)" fill="#fff"/>
      <path id="Path_680" data-name="Path 680" d="M39.447,21.761H28.881a.881.881,0,0,1,0-1.761H39.447a.881.881,0,1,1,0,1.761Z" transform="translate(9.132 3.044)" fill="#fff"/>
      <path id="Path_681" data-name="Path 681" d="M37.208,24.761H24.881a.881.881,0,0,1,0-1.761H37.208a.881.881,0,1,1,0,1.761Z" transform="translate(6.088 5.327)" fill="#fff"/>
      <path id="Path_682" data-name="Path 682" d="M46.208,37.088H33.881A.881.881,0,0,1,33,36.208V23.881A.881.881,0,0,1,33.881,23H46.208a.881.881,0,0,1,.881.881V36.208A.881.881,0,0,1,46.208,37.088Z" transform="translate(12.937 5.327)" fill="#17c2c9"/>
      <path id="Path_683" data-name="Path 683" d="M37.208,26.761H24.881a.881.881,0,1,1,0-1.761H37.208a.881.881,0,1,1,0,1.761Z" transform="translate(6.088 6.849)" fill="#fff"/>
      <path id="Path_684" data-name="Path 684" d="M37.208,28.761H24.881a.881.881,0,1,1,0-1.761H37.208a.881.881,0,1,1,0,1.761Z" transform="translate(6.088 8.371)" fill="#fff"/>
      <path id="Path_685" data-name="Path 685" d="M37.208,30.761H24.881a.881.881,0,1,1,0-1.761H37.208a.881.881,0,1,1,0,1.761Z" transform="translate(6.088 9.893)" fill="#fff"/>
      <path id="Path_686" data-name="Path 686" d="M37.208,32.761H24.881a.881.881,0,0,1,0-1.761H37.208a.881.881,0,1,1,0,1.761Z" transform="translate(6.088 11.415)" fill="#fff"/>
      <path id="Path_687" data-name="Path 687" d="M53.057,34.761H24.881a.881.881,0,1,1,0-1.761H53.057a.881.881,0,1,1,0,1.761Z" transform="translate(6.088 12.937)" fill="#fff"/>
      <path id="Path_688" data-name="Path 688" d="M53.057,36.761H24.881a.881.881,0,1,1,0-1.761H53.057a.881.881,0,1,1,0,1.761Z" transform="translate(6.088 14.459)" fill="#fff"/>
      <path id="Path_689" data-name="Path 689" d="M53.057,38.761H24.881a.881.881,0,1,1,0-1.761H53.057a.881.881,0,1,1,0,1.761Z" transform="translate(6.088 15.981)" fill="#fff"/>
    </g>
  </svg>
