  <svg xmlns="http://www.w3.org/2000/svg" width="57.167" height="69.527" viewBox="0 0 57.167 69.527"><g transform="translate(-5596 17991)"><g transform="translate(5596 -17991)"><path d="M5811.211,1003.8a.742.742,0,0,1-.187-.023.708.708,0,0,1-.513-.484l-2.849-10.053a.661.661,0,0,1,.188-.662.754.754,0,0,1,.7-.177l10.63,2.694a.708.708,0,0,1,.513.484.665.665,0,0,1-.188.662l-2.489,2.354a.754.754,0,0,1-1.025,0,.659.659,0,0,1,0-.969l1.6-1.515-8.206-2.079,2.2,7.76,1.6-1.515a.755.755,0,0,1,1.025,0,.661.661,0,0,1,0,.969l-2.49,2.354A.744.744,0,0,1,5811.211,1003.8Z" transform="translate(-5774.795 -966.031)" fill="#555"/><g transform="translate(40.241 33.343)"><path d="M5826.787,1012a.747.747,0,0,1-.513-.2l-3.109-2.941a.659.659,0,0,1,0-.969.756.756,0,0,1,1.025,0l3.109,2.941a.658.658,0,0,1,0,.969A.745.745,0,0,1,5826.787,1012Z" transform="translate(-5822.952 -1007.692)" fill="#555"/></g><g transform="translate(11.023)"><path d="M5798.731,957.783a2.155,2.155,0,0,1-1.04-.263,2.4,2.4,0,0,1-1.206-2.129c0-1.42.675-2.394,2.257-3.258l14.1-7.7a.095.095,0,0,0,0-.169l-15.185-8.29a.665.665,0,0,1-.266-.936.748.748,0,0,1,.99-.251l15.186,8.29a1.429,1.429,0,0,1,0,2.542l-14.1,7.7c-1.131.618-1.532,1.16-1.532,2.072a1.06,1.06,0,0,0,.481.942.829.829,0,0,0,.821-.066l13.825-7.548-.735-.454a.664.664,0,0,1-.211-.948.752.752,0,0,1,1-.2l1.724,1.063a.667.667,0,0,1-.034,1.167l-14.847,8.106A2.569,2.569,0,0,1,5798.731,957.783Z" transform="translate(-5780.054 -934.697)" fill="#555"/><path d="M5780.329,957.525a.762.762,0,0,1-.362-.092l-16.106-8.789a2.609,2.609,0,0,1-1.289-1.54,1.889,1.889,0,0,1-.1-.727c.015-1.4.692-2.357,2.257-3.212l15.341-8.376a.747.747,0,0,1,.989.251.665.665,0,0,1-.265.936l-15.342,8.376c-1.13.618-1.531,1.16-1.531,2.072a.479.479,0,0,1,0,.053,1.215,1.215,0,0,0,.046.261,1.259,1.259,0,0,0,.619.72l16.105,8.789a.664.664,0,0,1,.265.936A.732.732,0,0,1,5780.329,957.525Z" transform="translate(-5762.468 -934.697)" fill="#555"/></g><path d="M5779.875,961.091a.758.758,0,0,1-.351-.086l-12.748-6.687a.666.666,0,0,1-.282-.931.745.745,0,0,1,.984-.267l12.749,6.687a.665.665,0,0,1,.282.932A.731.731,0,0,1,5779.875,961.091Z" transform="translate(-5753.479 -944.657)" fill="#555"/><path d="M5792.083,993.479h-46.307a4.659,4.659,0,0,1-4.777-4.519V958.425a4.659,4.659,0,0,1,4.777-4.519h3.375a.686.686,0,1,1,0,1.37h-3.375a3.246,3.246,0,0,0-3.329,3.148v30.536a3.246,3.246,0,0,0,3.329,3.148h46.307a3.246,3.246,0,0,0,3.329-3.148V958.425a3.246,3.246,0,0,0-3.329-3.148h-3.806a.686.686,0,1,1,0-1.37h3.806a4.659,4.659,0,0,1,4.778,4.519v30.536A4.659,4.659,0,0,1,5792.083,993.479Z" transform="translate(-5740.345 -945.131)" fill="#555"/><path d="M5796.9,1044.822h-32.7a.737.737,0,0,1-.6-.3.653.653,0,0,1-.075-.637l2.472-5.912a.74.74,0,0,1,.941-.385.673.673,0,0,1,.406.889l-2.081,4.975h30.571l-2.081-4.975a.673.673,0,0,1,.407-.889.738.738,0,0,1,.94.385l2.473,5.912a.655.655,0,0,1-.074.637A.738.738,0,0,1,5796.9,1044.822Z" transform="translate(-5751.963 -990.56)" fill="#555"/><path d="M5794.16,1072.451H5742.3a2.661,2.661,0,0,1-2.285-1.235,2.367,2.367,0,0,1-.034-2.488l4.735-8.079a.731.731,0,0,1,.633-.353h45.758a.732.732,0,0,1,.633.353l4.735,8.079a2.369,2.369,0,0,1-.034,2.489A2.662,2.662,0,0,1,5794.16,1072.451Zm-48.38-10.785-4.528,7.726a1.075,1.075,0,0,0,.016,1.128,1.207,1.207,0,0,0,1.037.56h51.856a1.208,1.208,0,0,0,1.036-.56,1.075,1.075,0,0,0,.016-1.128l-4.528-7.726Z" transform="translate(-5739.648 -1002.924)" fill="#555"/><path d="M5749.653,1005.4h17.228a29.475,29.475,0,0,1-16.467-17.539l-1.916-5.7v22.147A1.125,1.125,0,0,0,5749.653,1005.4Z" transform="translate(-5744.222 -960.482)" fill="#FF9300"/></g></g></svg>