<?xml version="1.0" encoding="UTF-8" standalone="no"?>
<!-- Generator: Adobe Illustrator 19.0.0, SVG Export Plug-In . SVG Version: 6.00 Build 0)  -->

<svg
   version="1.1"
   id="Layer_1"
   x="0px"
   y="0px"
   viewBox="0 0 63.380001 67.648003"
   xml:space="preserve"
   sodipodi:docname="banner-svgrepo-com.svg"
   width="63.380001"
   height="67.648003"
   inkscape:version="1.1.1 (3bf5ae0d25, 2021-09-20)"
   xmlns:inkscape="http://www.inkscape.org/namespaces/inkscape"
   xmlns:sodipodi="http://sodipodi.sourceforge.net/DTD/sodipodi-0.dtd"
   xmlns="http://www.w3.org/2000/svg"
   xmlns:svg="http://www.w3.org/2000/svg"><defs
   id="defs41" /><sodipodi:namedview
   id="namedview39"
   pagecolor="#ffffff"
   bordercolor="#666666"
   borderopacity="1.0"
   inkscape:pageshadow="2"
   inkscape:pageopacity="0.0"
   inkscape:pagecheckerboard="0"
   showgrid="false"
   inkscape:zoom="1.4975819"
   inkscape:cx="101.83083"
   inkscape:cy="117.18892"
   inkscape:window-width="1326"
   inkscape:window-height="704"
   inkscape:window-x="40"
   inkscape:window-y="27"
   inkscape:window-maximized="1"
   inkscape:current-layer="Layer_1" />
<g
   id="g6"
   transform="matrix(0.11523066,0,0,0.11523066,2.9071147,4.7745411)"
   style="fill:#555555;fill-opacity:1">
	<g
   id="g4"
   style="fill:#555555;fill-opacity:1">
		<path
   d="m 481.806,286.348 29.618,-85.491 c 1.108,-3.197 0.6,-6.471 -1.363,-9.227 -1.962,-2.757 -5.136,-4.132 -8.519,-4.132 H 397.186 V 135.73 c 0,-5.776 -4.455,-9.935 -10.231,-9.935 H 125.499 c -5.776,0 -10.685,4.159 -10.685,9.935 v 51.768 H 10.519 c -3.382,0 -6.556,1.374 -8.518,4.13 -1.962,2.755 -2.471,6.159 -1.366,9.355 l 29.558,85.392 -29.617,85.46 c -1.107,3.197 -0.6,6.977 1.363,9.734 1.962,2.757 5.136,4.638 8.519,4.638 h 115.041 c 5.776,0 10.231,-5.205 10.231,-10.981 v -50.722 h 240.54 v 50.722 c 0,5.776 4.909,10.981 10.685,10.981 H 501.48 c 3.382,0 6.556,-1.897 8.518,-4.653 1.962,-2.755 2.471,-6.42 1.366,-9.616 z M 25.149,365.289 51.142,289.997 c 0.768,-2.216 0.768,-4.495 10e-4,-6.711 L 25.201,208.415 h 89.611 V 365.289 Z M 156.647,303.586 H 135.73 V 197.434 146.712 h 20.917 z m 177.79,0 H 177.563 V 146.712 H 334.437 Z M 376.27,197.434 V 303.585 H 355.354 V 146.712 h 20.916 z m 20.916,167.855 V 208.416 h 89.664 l -25.993,74.769 c -0.768,2.216 -0.768,4.756 -0.001,6.972 l 25.942,75.132 z"
   id="path2"
   style="fill:#555555;fill-opacity:1" />
	</g>
</g>
<g
   id="g8">
</g>
<g
   id="g10">
</g>
<g
   id="g12">
</g>
<g
   id="g14">
</g>
<g
   id="g16">
</g>
<g
   id="g18">
</g>
<g
   id="g20">
</g>
<g
   id="g22">
</g>
<g
   id="g24">
</g>
<g
   id="g26">
</g>
<g
   id="g28">
</g>
<g
   id="g30">
</g>
<g
   id="g32">
</g>
<g
   id="g34">
</g>
<g
   id="g36">
</g>
</svg>
