<?xml version="1.0" encoding="UTF-8" standalone="no"?>
<svg
   width="63.380001"
   height="67.648003"
   viewBox="0 0 63.380001 67.648003"
   version="1.1"
   id="svg4"
   sodipodi:docname="v-card-svgrepo-com.svg"
   inkscape:version="1.1.1 (3bf5ae0d25, 2021-09-20)"
   xmlns:inkscape="http://www.inkscape.org/namespaces/inkscape"
   xmlns:sodipodi="http://sodipodi.sourceforge.net/DTD/sodipodi-0.dtd"
   xmlns="http://www.w3.org/2000/svg"
   xmlns:svg="http://www.w3.org/2000/svg">
  <defs
     id="defs8" />
  <sodipodi:namedview
     id="namedview6"
     pagecolor="#ffffff"
     bordercolor="#666666"
     borderopacity="1.0"
     inkscape:pageshadow="2"
     inkscape:pageopacity="0.0"
     inkscape:pagecheckerboard="0"
     showgrid="false"
     inkscape:zoom="3.4875"
     inkscape:cx="27.670251"
     inkscape:cy="0.71684588"
     inkscape:window-width="1326"
     inkscape:window-height="704"
     inkscape:window-x="40"
     inkscape:window-y="27"
     inkscape:window-maximized="1"
     inkscape:current-layer="svg4" />
  <path
     d="M 59.80941,10.657668 H 4.1697061 a 3.0910946,3.0910946 0 0 0 -3.0910946,3.091094 v 37.093136 a 3.0910946,3.0910946 0 0 0 3.0910946,3.091095 H 59.80941 a 3.0910946,3.0910946 0 0 0 3.091095,-3.091095 V 13.748762 A 3.0910946,3.0910946 0 0 0 59.80941,10.657668 Z M 41.262842,23.022047 h 12.364379 v 3.091094 H 41.262842 Z m -6.182189,24.119811 a 7.1404286,7.1404286 0 0 0 -1.635189,-0.936602 c -3.647492,-1.570276 -9.152731,-3.894779 -9.152731,-6.726222 0,-1.703193 1.109703,-1.146796 1.601187,-4.262619 0.204012,-1.292078 1.190071,-0.02164 1.375537,-2.970542 0,-1.174616 -0.537851,-1.46827 -0.537851,-1.46827 0,0 0.272017,-1.737195 0.380205,-3.07873 0.111279,-1.400266 -0.683132,-5.563971 -3.947328,-6.482026 -0.574943,-0.581126 -0.96133,-0.343111 0.797503,-1.273531 -3.845322,-0.182374 -4.74174,1.829928 -6.788044,3.310563 -1.743378,1.298259 -2.216315,3.353837 -2.129764,4.448085 0.11437,1.338444 0.386386,3.07873 0.386386,3.07873 0,0 -0.540941,0.290563 -0.540941,1.465179 0.188557,2.948904 1.174616,1.678464 1.375537,2.970542 0.488393,3.115823 1.604278,2.559426 1.604278,4.262619 0,2.831443 -5.505239,5.155946 -9.1527316,6.726222 A 7.7370099,7.7370099 0 0 0 7.2608008,47.008941 V 16.839857 H 35.080653 Z M 56.718316,35.386425 H 41.262842 V 32.29533 h 15.455474 z"
     id="path2"
     style="stroke-width:3.09109;fill:#555555;fill-opacity:1" />
</svg>
