<svg xmlns="http://www.w3.org/2000/svg" width="53.928" height="49.418" viewBox="0 0 53.928 49.418"><g transform="translate(-7702.914 -2197.389)"><g transform="translate(7702.914 2197.388)"><path d="M7750.609,2246.807h-41.055a6.639,6.639,0,0,1-6.639-6.64V2197.8l.415-.415h41.463l.416.415v42.236h-.831v-41.821h-40.633v41.949a5.816,5.816,0,0,0,5.81,5.81h41.055v.411l.3-.279,0,0Z" transform="translate(-7702.915 -2197.388)" fill="#555"/></g><g transform="translate(7744.377 2210.669)"><path d="M9458.789,2793.964a5.581,5.581,0,0,1-2.3-.493,5.879,5.879,0,0,1-2-1.483,8.678,8.678,0,0,1-1.914-5.853v-27.893l.416-.415h11.633l.416.415v28.109a8.246,8.246,0,0,1-1.934,5.66,5.98,5.98,0,0,1-2.008,1.461A5.664,5.664,0,0,1,9458.789,2793.964Zm-5.383-35.308v27.478c0,4.809,2.791,7,5.383,7,2.7,0,5.422-2.33,5.422-6.784v-27.694Z" transform="translate(-9452.576 -2757.826)" fill="#555"/></g><rect width="33.763" height="3.036" transform="translate(7707.239 2201.418)" fill="#555"/><rect width="13.466" height="13.466" transform="translate(7707.732 2207.923)" fill="#17c2c9"/><rect width="17.367" height="1.268" transform="translate(7723.634 2207.923)" fill="#555"/><rect width="17.367" height="1.268" transform="translate(7723.634 2210.865)" fill="#555"/><rect width="17.367" height="1.268" transform="translate(7723.634 2213.807)" fill="#555"/><rect width="17.367" height="1.268" transform="translate(7723.634 2216.749)" fill="#555"/><rect width="17.367" height="1.268" transform="translate(7723.634 2219.691)" fill="#555"/><rect width="17.367" height="1.268" transform="translate(7723.634 2222.633)" fill="#555"/><rect width="33.27" height="1.268" transform="translate(7707.732 2225.575)" fill="#555"/><rect width="33.27" height="1.268" transform="translate(7707.732 2228.517)" fill="#555"/><rect width="33.27" height="1.268" transform="translate(7707.732 2231.459)" fill="#555"/><rect width="33.27" height="1.268" transform="translate(7707.732 2234.401)" fill="#555"/><rect width="33.27" height="1.268" transform="translate(7707.732 2237.343)" fill="#555"/><rect width="33.27" height="1.268" transform="translate(7707.732 2240.285)" fill="#555"/></g></svg>