<svg xmlns="http://www.w3.org/2000/svg" width="37" height="40" viewBox="0 0 37 40"><g transform="translate(24132 9765)"><g transform="translate(-24132 -9765)" fill="none" stroke="#555" stroke-width="1"><rect width="37" height="40" rx="3" stroke="none"></rect><rect x="0.5" y="0.5" width="36" height="39" rx="2.5" fill="none"></rect></g><g transform="translate(-24126 -9740)" fill="#fff" stroke="#555" stroke-width="1"><rect width="25" height="1" rx="0.5" stroke="none"></rect><rect x="0.5" y="0.5" width="24" fill="none"></rect></g><g transform="translate(-24126 -9735)" fill="#fff" stroke="#555" stroke-width="1"><rect width="25" height="1" rx="0.5" stroke="none"></rect><rect x="0.5" y="0.5" width="24" fill="none"></rect></g><g transform="translate(-24126 -9730)" fill="#fff" stroke="#555" stroke-width="1"><rect width="25" height="1" rx="0.5" stroke="none"></rect><rect x="0.5" y="0.5" width="24" fill="none"></rect></g><path d="M5.75,6.571A3.286,3.286,0,1,0,2.464,3.286,3.285,3.285,0,0,0,5.75,6.571Zm2.459.837L6.982,12.321,6.161,8.83l.821-1.437H4.518L5.339,8.83l-.821,3.491L3.291,7.408A3.444,3.444,0,0,0,0,10.843v1.068a1.232,1.232,0,0,0,1.232,1.232h9.036A1.232,1.232,0,0,0,11.5,11.911V10.843A3.444,3.444,0,0,0,8.209,7.408Z" transform="translate(-24126 -9757.998)" fill="#555"></path><g transform="matrix(0.966, 0.259, -0.259, 0.966, -3381.472, 5903.917)"><g transform="translate(-24067.385 -9758.412) rotate(30)" fill="none" stroke="#555" stroke-width="1"><path d="M0,0H7.6A2.237,2.237,0,0,1,9.841,2.237v0A2.237,2.237,0,0,1,7.6,4.473H0a0,0,0,0,1,0,0V0A0,0,0,0,1,0,0Z" stroke="none"></path><path d="M.847.5H7.6A1.737,1.737,0,0,1,9.341,2.237v0A1.737,1.737,0,0,1,7.6,3.973H.847A.347.347,0,0,1,.5,3.626V.847A.347.347,0,0,1,.847.5Z" fill="none"></path></g><g transform="translate(-24074.895 -9766.879) rotate(30)" fill="none" stroke="#555" stroke-width="1"><circle cx="5.815" cy="5.815" r="5.815" stroke="none"></circle><circle cx="5.815" cy="5.815" r="5.315" fill="none"></circle></g></g><path d="M5599.472,1335.877a4.572,4.572,0,0,1,3.548,1.683c.011-.116.018-.233.018-.352a3.566,3.566,0,0,0-3.565-3.566c-.085,0-.171,0-.257.009a3.531,3.531,0,0,0-3.288,3.9,4.572,4.572,0,0,1,3.543-1.678Z" transform="translate(-27121.555 -14658.316) rotate(45)" fill="#007111"></path><path d="M2435.6,1714.023l11.6-11.594h-11.6Z" transform="translate(-26565.154 -11465.24)" fill="#007111"></path></g></svg>