<svg xmlns="http://www.w3.org/2000/svg" width="53.906" height="52.185" viewBox="0 0 53.906 52.185"><g transform="translate(0.002)"><g transform="translate(15.346 10.667)"><path d="M6823.408,2576.563a.649.649,0,0,1-.432-.165l-3.118-2.781a.648.648,0,0,1,.863-.968l2.613,2.33,4.619-5.648a.648.648,0,0,1,1,.821l-5.047,6.173a.649.649,0,0,1-.451.236Z" transform="translate(-6819.641 -2569.094)" fill="#555"></path></g><g transform="translate(48.675 2.158)"><path d="M6899.372,2603.6a2.6,2.6,0,0,1-2.591-2.588l-.046-32.409a.647.647,0,0,1,.646-.649l3.885-.016a.662.662,0,0,1,.46.189.652.652,0,0,1,.191.459l.046,32.419a2.6,2.6,0,0,1-2.581,2.594Zm-1.339-34.352.046,31.762a1.3,1.3,0,0,0,1.294,1.292v.648l0-.648a1.3,1.3,0,0,0,1.288-1.3l-.045-31.77Z" transform="translate(-6896.735 -2559.931)" fill="#555"></path><path d="M6901.27,2558.72h-3.887a.648.648,0,0,1-.647-.648V2552a2.591,2.591,0,0,1,5.183,0v6.068A.649.649,0,0,1,6901.27,2558.72Zm-3.237-1.3h2.588V2552a1.294,1.294,0,0,0-2.588,0Z" transform="translate(-6896.735 -2549.413)" fill="#555"></path><path d="M6901.934,2652.933a.649.649,0,0,1-.648-.649V2648.1a.648.648,0,1,1,1.3,0v4.187A.649.649,0,0,1,6901.934,2652.933Z" transform="translate(-6899.318 -2605.065)" fill="#555"></path></g><path d="M6822.893,2601.715h-30.407a.649.649,0,0,1-.649-.649v-4.061a.648.648,0,1,1,1.3,0v3.412h29.759a8.546,8.546,0,0,0,8.537-8.537v-37.162h-3.413a.649.649,0,0,1,0-1.3h4.061a.648.648,0,0,1,.648.649v37.81A9.845,9.845,0,0,1,6822.893,2601.715Z" transform="translate(-6788.512 -2549.531)" fill="#555"></path><path d="M6815.359,2592.544h-30.565a.648.648,0,0,1-.648-.648V2545.07a.648.648,0,0,1,.648-.648h38.857a.648.648,0,0,1,.648.648V2583.6a3.2,3.2,0,0,1-3.195,3.2h-2.549v2.549A3.2,3.2,0,0,1,6815.359,2592.544Zm-29.917-1.3h29.917a1.9,1.9,0,0,0,1.9-1.9v-3.2a.649.649,0,0,1,.648-.648h3.2a1.9,1.9,0,0,0,1.9-1.9v-37.886h-37.56Z" transform="translate(-6784.146 -2544.421)" fill="#555"></path><path d="M6827.647,2575.444h-13.321a.649.649,0,0,1-.649-.649v-13.321a.649.649,0,0,1,.649-.648h13.321a.649.649,0,0,1,.648.648V2574.8A.649.649,0,0,1,6827.647,2575.444Zm-12.672-1.3H6827v-12.024h-12.024Z" transform="translate(-6800.91 -2553.734)" fill="#555"></path><path d="M6827.647,2617.079h-13.321a.649.649,0,0,1-.649-.648v-13.321a.649.649,0,0,1,.649-.648h13.321a.649.649,0,0,1,.648.648v13.321A.648.648,0,0,1,6827.647,2617.079Zm-12.672-1.3H6827v-12.024h-12.024Z" transform="translate(-6800.91 -2577.369)" fill="#555"></path><g transform="translate(15.406 27.731)"><path d="M6828.474,2617.9a.645.645,0,0,1-.459-.19l-8.043-8.043a.648.648,0,0,1,.917-.917l8.043,8.043a.649.649,0,0,1-.458,1.107Z" transform="translate(-6819.781 -2608.564)" fill="#555"></path><path d="M6820.43,2617.9a.649.649,0,0,1-.458-1.107l8.043-8.043a.648.648,0,0,1,.917.917l-8.043,8.043A.645.645,0,0,1,6820.43,2617.9Z" transform="translate(-6819.781 -2608.564)" fill="#555"></path></g><path d="M6791.644,2563.47l7.44-11.549h-7.44Z" transform="translate(-6788.402 -2548.679)" fill="#007111"></path></g></svg>
        