<svg xmlns="http://www.w3.org/2000/svg" width="70.498" height="53.683" viewBox="0 0 70.498 53.683"><g transform="translate(2475 -205)"><path d="M6785.043,2790.978h57.907l-2.444-3.135h-53.019Z" transform="translate(-9253.288 -2542.189)" fill="#007111"></path><g transform="translate(-2475 242.231)"><path d="M6840.054,2790.322h-69.129a.685.685,0,0,1-.539-1.106l6.714-8.61a.683.683,0,0,1,.539-.264h55.692a.683.683,0,0,1,.54.264l6.656,8.536a.685.685,0,0,1-.473,1.179Zm-67.728-1.369h66.317l-5.646-7.241h-55.023Z" transform="translate(-6770.241 -2780.343)" fill="#555"></path><path d="M6833.445,2807.054h-55.921a6.843,6.843,0,0,1-3.9-1.212l-.409-.281a6.876,6.876,0,0,1-2.977-5.663.685.685,0,0,1,1.369,0,5.506,5.506,0,0,0,2.383,4.535l.409.282a5.487,5.487,0,0,0,3.123.971h55.921a5.487,5.487,0,0,0,3.123-.971l.409-.282a5.506,5.506,0,0,0,2.384-4.535.684.684,0,1,1,1.369,0,6.875,6.875,0,0,1-2.977,5.663l-.408.281A6.844,6.844,0,0,1,6833.445,2807.054Z" transform="translate(-6770.24 -2790.603)" fill="#555"></path><path d="M6846.1,2807.674h-5.9a.684.684,0,0,1,0-1.369h5.9a.684.684,0,0,1,0,1.369Z" transform="translate(-6807.903 -2794.459)" fill="#555"></path></g><path d="M6895.227,2737.348a.685.685,0,0,1-.685-.684v-33.079a3.472,3.472,0,0,0-3.468-3.468h-6.354a.684.684,0,1,1,0-1.369h6.354a4.842,4.842,0,0,1,4.837,4.837v33.079A.685.685,0,0,1,6895.227,2737.348Z" transform="translate(-9307.111 -2493.748)" fill="#555"></path><path d="M6785.584,2737.348a.685.685,0,0,1-.685-.684v-33.079a4.843,4.843,0,0,1,4.837-4.837h41.082a.684.684,0,1,1,0,1.369h-41.082a3.472,3.472,0,0,0-3.469,3.468v33.079A.684.684,0,0,1,6785.584,2737.348Z" transform="translate(-9253.211 -2493.748)" fill="#555"></path><path d="M6841.768,2772.064h-48.175a.684.684,0,1,1,0-1.369h48.175a.684.684,0,1,1,0,1.369Z" transform="translate(-9257.564 -2532.866)" fill="#555"></path><rect width="4.017" height="10.173" transform="translate(-2458.16 224.257)" fill="#007111"></rect><rect width="4.017" height="15.453" transform="translate(-2425.626 218.977)" fill="#555"></rect><rect width="4.017" height="15.646" transform="translate(-2447.315 218.783)" fill="#555"></rect><path d="M6831.108,2714.089a3.53,3.53,0,1,1,3.53-3.53A3.534,3.534,0,0,1,6831.108,2714.089Zm0-5.691a2.161,2.161,0,1,0,2.161,2.161A2.163,2.163,0,0,0,6831.108,2708.4Z" transform="translate(-9276.415 -2498.25)" fill="#555"></path><path d="M6878.643,2714.625a3.53,3.53,0,1,1,3.529-3.53A3.534,3.534,0,0,1,6878.643,2714.625Zm0-5.691a2.161,2.161,0,1,0,2.161,2.161A2.164,2.164,0,0,0,6878.643,2708.934Z" transform="translate(-9302.26 -2498.542)" fill="#555"></path><rect width="4.017" height="10.754" transform="translate(-2436.471 223.676)" fill="#007111"></rect><path d="M6856.228,2727.827a2.395,2.395,0,1,1,2.395-2.395A2.4,2.4,0,0,1,6856.228,2727.827Zm0-3.42a1.026,1.026,0,1,0,1.026,1.025A1.027,1.027,0,0,0,6856.228,2724.407Z" transform="translate(-9290.69 -2506.955)" fill="#555"></path><path d="M6808.693,2729.434a2.395,2.395,0,1,1,2.395-2.395A2.4,2.4,0,0,1,6808.693,2729.434Zm0-3.42a1.026,1.026,0,1,0,1.025,1.026A1.027,1.027,0,0,0,6808.693,2726.014Z" transform="translate(-9264.845 -2507.828)" fill="#555"></path><path d="M6813.54,2722.134a.684.684,0,0,1-.356-1.27l7.118-4.323a.685.685,0,0,1,.71,1.171l-7.118,4.322A.678.678,0,0,1,6813.54,2722.134Z" transform="translate(-9268.41 -2503.369)" fill="#555"></path><path d="M6846.758,2721.144a.683.683,0,0,1-.363-.1l-6.512-4.087a.684.684,0,1,1,.727-1.159l6.512,4.086a.685.685,0,0,1-.364,1.264Z" transform="translate(-9282.931 -2502.959)" fill="#555"></path><path d="M6861.565,2721.744a.684.684,0,0,1-.341-1.278l6.775-3.886a.684.684,0,0,1,.681,1.187l-6.775,3.886A.68.68,0,0,1,6861.565,2721.744Z" transform="translate(-9294.521 -2503.393)" fill="#555"></path></g></svg>