<svg xmlns="http://www.w3.org/2000/svg" width="46" height="44.903" viewBox="0 0 46 44.903"><g transform="translate(-112 -643)"><g transform="translate(112 655.903)" fill="none" stroke="#555" stroke-width="1"><path d="M3,0H38a0,0,0,0,1,0,0V32a0,0,0,0,1,0,0H3a3,3,0,0,1-3-3V3A3,3,0,0,1,3,0Z" stroke="none"></path><path d="M3,.5H37a.5.5,0,0,1,.5.5V31a.5.5,0,0,1-.5.5H3A2.5,2.5,0,0,1,.5,29V3A2.5,2.5,0,0,1,3,.5Z" fill="none"></path></g><g transform="translate(149 655.903)" fill="none" stroke="#555" stroke-width="1"><path d="M0,0H6A3,3,0,0,1,9,3V29a3,3,0,0,1-3,3H0a0,0,0,0,1,0,0V0A0,0,0,0,1,0,0Z" stroke="none"></path><path d="M1,.5H6A2.5,2.5,0,0,1,8.5,3V29A2.5,2.5,0,0,1,6,31.5H1A.5.5,0,0,1,.5,31V1A.5.5,0,0,1,1,.5Z" fill="none"></path></g><rect width="25" height="5" transform="translate(118 680.903)" fill="#007111"></rect><line y2="27.151" transform="translate(153.248 656.053)" fill="none" stroke="#555" stroke-width="1"></line><line y1="4.177" x2="4.177" transform="translate(149.071 683.204)" fill="none" stroke="#555" stroke-width="1"></line><path d="M0,3.484,3.538,0" transform="translate(156.732 683.204) rotate(90)" fill="none" stroke="#555" stroke-width="1"></path><g transform="translate(121.4 643)" fill="#fff"><path d="M 0.5421998500823975 18.29702186584473 L 0.498199850320816 18.2969799041748 L 0.498199850320816 9.999900817871094 C 0.498199850320816 4.761641025543213 4.75984001159668 0.5000012516975403 9.998100280761719 0.5000012516975403 L 10.88280010223389 0.5000012516975403 C 16.12155914306641 0.5000012516975403 20.38360023498535 4.761641025543213 20.38360023498535 9.999900817871094 L 20.38360023498535 18.29597854614258 L 20.33869934082031 18.29602241516113 L 20.33869934082031 10.44270133972168 C 20.33869934082031 4.984541416168213 15.89857006072998 0.5440012812614441 10.44089984893799 0.5440012812614441 C 4.982739925384521 0.5440012812614441 0.5421998500823975 4.984541416168213 0.5421998500823975 10.44270133972168 L 0.5421998500823975 18.29702186584473 Z" stroke="none"></path><path d="M 1.042199850082397 18.79750061035156 L 1.041199803352356 18.79750061035156 L -0.001800151076167822 18.79650115966797 L -0.001800151076167822 9.999900817871094 C -0.001800151076167822 4.485941410064697 4.484139919281006 1.258850147678459e-06 9.998100280761719 1.258850147678459e-06 L 10.88280010223389 1.258850147678459e-06 C 16.39726066589355 1.258850147678459e-06 20.88360023498535 4.485941410064697 20.88360023498535 9.999900817871094 L 20.88360023498535 18.79550170898438 L 19.83869934082031 18.79650115966797 L 19.83869934082031 10.44270133972168 C 19.83869934082031 5.260241031646729 15.62285995483398 1.044001221656799 10.44089984893799 1.044001221656799 C 5.258440017700195 1.044001221656799 1.042199850082397 5.260241031646729 1.042199850082397 10.44270133972168 L 1.042199850082397 18.79650115966797 L 1.042199850082397 18.79750061035156 Z" stroke="none" fill="#555"></path></g><g transform="translate(127.666 643)" fill="#fff"><path d="M 0.5421998500823975 12.0321216583252 L 0.498199850320816 12.03207969665527 L 0.498199850320816 9.999899864196777 C 0.498199850320816 4.761640071868896 4.75984001159668 0.5000001788139343 9.998100280761719 0.5000001788139343 L 10.88280010223389 0.5000001788139343 C 16.12155914306641 0.5000001788139343 20.38360023498535 4.761640071868896 20.38360023498535 9.999899864196777 L 20.38360023498535 12.03107833862305 L 20.33869934082031 12.03112125396729 L 20.33869934082031 10.44270038604736 C 20.33869934082031 4.984539985656738 15.89857006072998 0.5440002083778381 10.44089984893799 0.5440002083778381 C 4.982739925384521 0.5440002083778381 0.5421998500823975 4.984539985656738 0.5421998500823975 10.44270038604736 L 0.5421998500823975 12.0321216583252 Z" stroke="none"></path><path d="M 1.042199850082397 12.53260040283203 L 1.041199803352356 12.53260040283203 L -0.001800151076167822 12.53159999847412 L -0.001800151076167822 9.999899864196777 C -0.001800151076167822 4.485939979553223 4.484139919281006 2.014160145336064e-07 9.998100280761719 2.014160145336064e-07 L 10.88280010223389 2.014160145336064e-07 C 16.39726066589355 2.014160145336064e-07 20.88360023498535 4.485939979553223 20.88360023498535 9.999899864196777 L 20.88360023498535 12.53060054779053 L 19.83869934082031 12.53159999847412 L 19.83869934082031 10.44270038604736 C 19.83869934082031 5.260240077972412 15.62285995483398 1.044000148773193 10.44089984893799 1.044000148773193 C 5.258440017700195 1.044000148773193 1.042199850082397 5.260240077972412 1.042199850082397 10.44270038604736 L 1.042199850082397 12.53159999847412 L 1.042199850082397 12.53260040283203 Z" stroke="none" fill="#555"></path></g><g transform="translate(119 660.903)" fill="#fff" stroke="#555" stroke-width="1"><rect width="6" height="1" stroke="none"></rect><rect x="0.5" y="0.5" width="5" fill="none"></rect></g><g transform="translate(139 660.903)" fill="#fff" stroke="#555" stroke-width="1"><rect width="5" height="1" stroke="none"></rect><rect x="0.5" y="0.5" width="4" fill="none"></rect></g></g></svg>