<svg xmlns="http://www.w3.org/2000/svg" width="62.342" height="44.818" viewBox="0 0 62.342 44.818"><g transform="translate(-4435.607 -4192.787)"><path d="M4458.724,4248.177h-2.354a4.105,4.105,0,0,1-3.866-2.754,10.165,10.165,0,0,1-.459-2.862,10.643,10.643,0,0,0-.16-1.539,20.14,20.14,0,0,0-2.618-6.691c-1.165-1.843-1.684-4.13-1.684-7.417,0-6.88,6.52-12.936,12.823-14.815a.678.678,0,0,1,.387,1.3c-7.421,2.213-11.855,8.61-11.855,13.516,0,3.015.454,5.079,1.474,6.692a21.48,21.48,0,0,1,2.8,7.14,12,12,0,0,1,.186,1.738,8.931,8.931,0,0,0,.385,2.493,2.749,2.749,0,0,0,2.586,1.845h2.354a1.669,1.669,0,0,0,1.349-.677,1.642,1.642,0,0,0,.262-1.459c-.571-1.918-.754-4.619-.593-8.757a.669.669,0,0,1,.7-.651.678.678,0,0,1,.65.7c-.155,3.983.011,6.548.537,8.317a2.981,2.981,0,0,1-.473,2.655A3.012,3.012,0,0,1,4458.724,4248.177Z" transform="translate(-6.565 -10.572)" fill="#555"></path><path d="M4519.445,4240.265a.677.677,0,0,1-.116-1.345c16.337-2.862,18.161-10.466,18.186-13.6a.5.5,0,0,0-.149-.358.53.53,0,0,0-.378-.159h-1.244a.676.676,0,0,1-.646-.476c-2.007-6.437-9.307-9.8-9.381-9.833a.677.677,0,0,1-.395-.686,13.459,13.459,0,0,1,2.311-5.427c-3.232.433-5.368,1.225-7.1,2.622a.676.676,0,0,1-.7.093,28.95,28.95,0,0,0-8.944-2.439.678.678,0,0,1-.643-.711.687.687,0,0,1,.71-.643,29.032,29.032,0,0,1,9.051,2.391c1.942-1.458,4.311-2.273,7.813-2.7a1.192,1.192,0,0,1,1.132,1.851,14.453,14.453,0,0,0-2.216,4.644c1.693.865,7.437,4.156,9.492,9.962h.756a1.875,1.875,0,0,1,1.341.561,1.845,1.845,0,0,1,.542,1.323c-.028,3.476-1.966,11.889-19.308,14.926A.651.651,0,0,1,4519.445,4240.265Z" transform="translate(-40.922 -7.781)" fill="#555"></path><path d="M4498.222,4276.049H4495.2a3.068,3.068,0,0,1-2.87-1.991c-.128-.345-.243-.681-.345-.994a1.641,1.641,0,0,0-1.647-1.139c-1.214.054-2.489.087-3.789.1-.062,0-6.643.036-11.412-1.658a.677.677,0,1,1,.453-1.277c4.518,1.6,10.883,1.577,10.944,1.579,1.286-.011,2.544-.044,3.744-.1a3.009,3.009,0,0,1,2.994,2.07c.1.3.208.617.33.947a1.706,1.706,0,0,0,1.6,1.1h3.021a1.707,1.707,0,0,0,1.629-2.213,36.712,36.712,0,0,1-.99-8.926.664.664,0,0,1,.708-.645.677.677,0,0,1,.644.709,35.573,35.573,0,0,0,.934,8.465,3.063,3.063,0,0,1-2.925,3.966Z" transform="translate(-21.426 -38.444)" fill="#555"></path><path d="M4549.242,4237.847a1.141,1.141,0,1,1,1.142-1.141A1.142,1.142,0,0,1,4549.242,4237.847Zm0-1.355a.214.214,0,1,0,.214.214A.215.215,0,0,0,4549.242,4236.491Z" transform="translate(-61.676 -23.453)" fill="#555"></path><path d="M4545.184,4241.964a3.507,3.507,0,0,1-3.5-3.5.678.678,0,0,1,1.355,0,2.151,2.151,0,0,0,2.148,2.148.677.677,0,1,1,0,1.355Z" transform="translate(-58.155 -24.67)" fill="#555"></path><path d="M4564.19,4248.468a.678.678,0,0,1-.606-.981,7.387,7.387,0,0,0,.686-3.338.678.678,0,0,1,.634-.718.687.687,0,0,1,.719.634,8.761,8.761,0,0,1-.827,4.029A.677.677,0,0,1,4564.19,4248.468Z" transform="translate(-70.125 -27.765)" fill="#555"></path><path d="M4473.031,4219.783a.677.677,0,0,1-.37-1.245c.332-.216,8.245-5.236,19.611-1.9a.678.678,0,1,1-.381,1.3c-10.777-3.166-18.416,1.685-18.491,1.734A.674.674,0,0,1,4473.031,4219.783Z" transform="translate(-20.146 -12.451)" fill="#555"></path><path d="M4476.545,4206.14a.676.676,0,0,1-.591-.346,8.729,8.729,0,1,1,15.872-1.445.678.678,0,0,1-1.282-.439,7.375,7.375,0,1,0-13.409,1.22.678.678,0,0,1-.589,1.011Z" transform="translate(-21.507)" fill="#555"></path><path d="M4526.372,4217.2a.663.663,0,0,1-.345-.1.676.676,0,0,1-.237-.928,12.835,12.835,0,0,1,2.346-2.8.678.678,0,0,1,.886,1.026,11.561,11.561,0,0,0-2.067,2.465A.677.677,0,0,1,4526.372,4217.2Z" transform="translate(-49.391 -11.198)" fill="#555"></path><path d="M4439.279,4238.161a3.841,3.841,0,0,1-2.491-.914,3.156,3.156,0,0,1-.438-4.49,2.607,2.607,0,0,1,1.826-.951,2.546,2.546,0,0,1,1.886.684,2.192,2.192,0,0,1,.7,1.532,2.061,2.061,0,0,1-.531,1.492.678.678,0,0,1-.987-.93.718.718,0,0,0,.165-.511.833.833,0,0,0-.257-.582,1.207,1.207,0,0,0-.885-.333,1.266,1.266,0,0,0-.878.473,1.8,1.8,0,0,0,.276,2.58,2.516,2.516,0,0,0,3.546-.3.678.678,0,0,1,1.036.875,3.847,3.847,0,0,1-2.633,1.36Q4439.444,4238.161,4439.279,4238.161Z" transform="translate(0 -21.39)" fill="#555"></path><path d="M4487.715,4200.287a5.348,5.348,0,0,0-5.312,4.781,8.736,8.736,0,0,1,4.313-1.312,12.783,12.783,0,0,1,6.2,1.509c.041.021.082.043.122.065A5.343,5.343,0,0,0,4487.715,4200.287Z" transform="translate(-25.656 -4.112)" fill="#007111"></path></g></svg>